<?xml version="1.0" encoding="iso-8859-1"?>
<!-- Uploaded to: SVG Repo, www.svgrepo.com, Generator: SVG Repo Mixer Tools -->
<svg fill="#000000" height="800px" width="800px" version="1.1" id="Layer_1" xmlns="http://www.w3.org/2000/svg" xmlns:xlink="http://www.w3.org/1999/xlink" 
	 viewBox="0 0 512 512" xml:space="preserve">
<g>
	<g>
		<path d="M272.549,0c-15.685,0-28.444,12.761-28.444,28.444v54.303h-25.341c-2.324,0-4.525,1.043-5.999,2.839
			c-1.473,1.797-2.064,4.16-1.607,6.44l7.899,39.496c-2.002,7.231-8.05,33.215-8.05,83.103c0,45.621,12.051,115.005,21.735,170.754
			c6.099,35.108,11.364,65.427,11.364,77.489v41.374c0,4.285,3.473,7.758,7.758,7.758c4.284,0,7.758-3.472,7.758-7.758v-41.374
			c0-12.062,5.266-42.381,11.364-77.489c9.684-55.749,21.735-125.133,21.735-170.754c0-49.888-6.048-75.872-8.049-83.104
			l7.899-39.496c0.455-2.279-0.134-4.642-1.607-6.44c-1.474-1.797-3.675-2.839-5.999-2.839H259.62V28.444
			c0-7.13,5.8-12.929,12.929-12.929c7.13,0,12.929,5.8,12.929,12.929v20.687c0,4.285,3.473,7.758,7.758,7.758
			s7.758-3.472,7.758-7.758V28.444C300.994,12.761,288.234,0,272.549,0z M259.62,360.038V164.978c0-4.285-3.473-7.758-7.758-7.758
			c-4.284,0-7.758,3.472-7.758,7.758v195.061c-8.626-50.346-17.584-107.03-17.584-145.412c0-41.007,4.252-65.094,6.508-74.99h37.666
			c2.259,9.91,6.509,33.996,6.509,74.99C277.204,253.009,268.247,309.693,259.62,360.038z M275.498,98.263l-5.172,25.859h-36.929
			l-5.172-25.859H275.498z"/>
	</g>
</g>
</svg>