<?xml version="1.0" encoding="utf-8"?>

<!DOCTYPE svg PUBLIC "-//W3C//DTD SVG 1.1//EN" "http://www.w3.org/Graphics/SVG/1.1/DTD/svg11.dtd">
<!-- Uploaded to: SVG Repo, www.svgrepo.com, Generator: SVG Repo Mixer Tools -->
<svg height="800px" width="800px" version="1.1" id="_x32_" xmlns="http://www.w3.org/2000/svg" xmlns:xlink="http://www.w3.org/1999/xlink" 
	 viewBox="0 0 512 512"  xml:space="preserve">
<style type="text/css">
	.st0{fill:#000000;}
</style>
<g>
	<path class="st0" d="M485.367,27.976l0.048,0.077c0-0.009,0-0.009-0.01-0.019L485.367,27.976z"/>
	<path class="st0" d="M485.415,28.053c0.009,0.01,0.009,0.01,0.009,0.02c0.01,0,0.01,0.01,0.01,0.01L485.415,28.053z"/>
	<path class="st0" d="M505.769,420.247l-0.02-0.067c-0.126-0.444-0.231-0.782-0.347-1.179c4.685-15.475,6.588-31.724,6.598-47.818
		c-0.068-36.342-8.781-72.046-17.446-96.292l-0.01-0.03l-0.029-0.057c-0.184-0.483-0.676-2.193-1.131-4.415
		c-0.454-2.242-0.927-5.082-1.342-8.298v-0.029c-0.86-6.54-1.575-14.838-2.116-24.15c-1.091-18.654-1.516-41.472-1.516-64.327
		c0-38.854,1.216-78.026,2.289-98.11c0.155-3.072,0.328-5.757,0.474-7.824c0.144-2.019,0.29-3.565,0.338-3.912l0.009-0.068v-0.048
		c0.502-3.459,0.812-7.014,0.812-10.646c0.01-7.824-1.498-16.78-6.908-24.904c-5.564-8.404-14.248-13.872-23.841-16.49
		c-6.28-1.748-12.973-2.463-20.228-2.463c-18.867,0-76.378,0.59-116.141,0.59c-14.852,0-27.324-0.087-33.762-0.3l-0.024-0.01
		c-1.763-0.048-3.304-0.136-3.458-0.154l-0.015,0.144l0.01-0.154c-1.976-0.212-4.038-0.348-6.168-0.348h-0.02
		c-6.429,0.01-14.138,1.179-21.57,5.448c-7.767,4.425-13.921,11.844-17.143,21.108c-2.115,6-3.028,12.481-3.028,19.398
		c0,20.421,0,142.642,0,174.956c-1.676,1.516-3.623,3.246-6.028,5.303c-7.694,6.588-18.605,15.495-30.705,24.894
		c-12.05,9.381-25.411,19.33-37.97,28.063c-12.534,8.733-24.348,16.278-32.897,20.722l-0.039,0.019
		c-2.343,1.236-4.487,2.232-6.173,2.927c-1.647,0.696-2.999,1.101-3.019,1.082h-0.009l-0.097,0.029
		c-9.207,2.134-23.677,3.825-39.182,7.072h-0.02c-15.505,3.313-32.748,8.269-48.33,18.769c-10.414,7.023-19.93,16.713-26.624,29.415
		l0.009-0.028c-6.317,11.862-8.433,23.552-8.423,33.376v0.146c0.01,5.497,0.628,10.394,1.342,14.442
		c0.551,3.071,1.159,5.689,1.585,7.544C1.41,426.575,0,430.246,0,434.37v26.537c0.019,23.3,18.885,42.186,42.214,42.206h214.287
		c2.473-0.01,4.743-0.435,7.023-1.285l0.01-0.01l67.607-25.716v1.632c0.014,14.017,11.375,25.368,25.382,25.378h1.111h107.841
		c23.311-0.02,42.197-18.896,42.206-42.215c0,0,0-22.837,0-28.614v-0.048c-0.019-5.226-1.188-9.418-1.884-11.901L505.769,420.247z
		 M287.806,12.075l0.391-2.801l-0.391,2.821V12.075z M478.005,460.898c-0.009,6.916-5.612,12.529-12.538,12.539H360.818v-17.882
		c-0.005-5.1-2.503-9.872-6.71-12.771c-2.608-1.796-5.68-2.733-8.8-2.733c-1.831,0-3.73,0.329-5.55,1.034l0.048-0.02l-85.12,32.372
		H42.214c-6.926-0.01-12.529-5.623-12.538-12.539v-22.518l0.831-1.42c1.081-2.097,1.864-4.212,2.453-6.54
		c0.067-0.28,0.106-0.58,0.174-0.86h444.388c0.3,1.218,0.502,2.251,0.483,2.724C478.005,438.061,478.005,460.898,478.005,460.898z
		 M476.103,413.737H31.675c-0.782-3.661-1.468-7.719-1.468-12.162c0.029-5.844,1.101-12.268,4.965-19.61
		c4.261-8.018,10.009-13.94,17.031-18.712c7.004-4.753,15.321-8.25,24.219-10.897c17.832-5.362,37.549-7.071,53.27-10.598
		c6.883-1.632,14.158-5.254,22.827-10.162c5.777-3.314,12.134-7.38,18.66-11.708l28.497,31.908
		c4.159,4.656,11.313,5.062,15.964,0.898c4.661-4.154,5.067-11.303,0.908-15.969l-26.6-29.782
		c10.482-7.496,20.953-15.331,30.812-22.972l28.207,31.589c4.164,4.656,11.308,5.062,15.964,0.898
		c4.661-4.164,5.062-11.303,0.908-15.968l-27.3-30.575c0.087-0.067,0.189-0.154,0.276-0.222
		c11.027-8.955,19.726-16.403,24.61-21.098c1.328-1.295,2.361-2.338,3.356-3.526c0.531-0.667,1.044-1.217,1.836-2.753
		c0.357-0.85,1.014-1.913,1.096-4.618c0-0.744,0-6.762,0-16.21h40.867c6.468,0,11.713-5.245,11.713-11.708
		c0-6.472-5.245-11.717-11.713-11.717h-40.867c0-12.327,0-26.546,0-41.163h40.867c6.468,0,11.713-5.245,11.713-11.717
		c0-6.464-5.245-11.708-11.713-11.708h-40.867c0-35.54,0-68.829,0-78.634c0-6.492,1.304-10.153,2.55-12.105
		c1.285-1.942,2.502-2.753,4.559-3.477c1.358-0.445,3.073-0.696,4.976-0.696c0.932,0,1.893,0.058,2.84,0.164l0.034,0.01
		c1.58,0.164,3.352,0.252,5.806,0.328c2.43,0.077,5.415,0.136,8.892,0.184c6.946,0.096,15.843,0.136,25.846,0.136
		c39.965,0,97.65-0.59,116.141-0.59c7.959-0.02,13.05,1.275,15.813,2.724c2.763,1.526,3.632,2.704,4.559,4.994
		c0.561,1.545,0.938,3.7,0.928,6.462c0.01,1.903-0.164,4.067-0.502,6.443c-0.396,2.831-0.706,7.468-1.092,14.491
		c-0.367,6.945-0.744,15.929-1.091,26.314c-0.696,20.75-1.237,47.036-1.237,73.36c0.01,34.892,0.927,69.63,3.884,92.331
		c1.014,7.623,2.174,13.844,4.008,19.021c7.719,21.349,15.737,54.802,15.699,86.256
		C482.333,386.398,480.449,401.091,476.103,413.737z"/>
	<path class="st0" d="M260.182,14.345c0.01-0.01,0.015-0.01,0.025-0.01c0.014-0.009,0.024-0.019,0.038-0.029L260.182,14.345z"/>
	<path class="st0" d="M243.06,35.433l-0.02,0.058c0.005-0.02,0.015-0.028,0.024-0.048c0-0.01,0-0.019,0.005-0.028L243.06,35.433z"/>
</g>
</svg>