<?xml version="1.0" encoding="iso-8859-1"?>
<!-- Uploaded to: SVG Repo, www.svgrepo.com, Generator: SVG Repo Mixer Tools -->
<svg fill="#000000" height="800px" width="800px" version="1.1" id="Capa_1" xmlns="http://www.w3.org/2000/svg" xmlns:xlink="http://www.w3.org/1999/xlink" 
	 viewBox="0 0 485.049 485.049" xml:space="preserve">
<g>
	<path d="M116.674,16.507c-1.453-0.046-2.921-0.069-4.361-0.069c-29.572,0-55.64,9.546-75.386,27.607
		c-20.607,18.85-33.34,46.341-36.82,79.501L0,124.564l0.032,1.022c2.489,78.854,8.7,214.407,13.887,263.825
		c2.56,24.386,11.992,44.666,27.277,58.647c14.699,13.446,34.045,20.553,55.943,20.553c1.062,0,2.132-0.017,3.204-0.051
		c22.358-0.706,42.504-9.825,56.726-25.678c14.493-16.155,22.153-38.085,22.153-63.418c0-87.846,13.782-124.824,25.942-157.45
		c9.101-24.417,17.696-47.479,17.696-85.4c0-34.478-10.358-64.179-29.957-85.894C173.852,29.608,146.778,17.458,116.674,16.507z
		 M112.313,46.438c1.134,0,2.269,0.018,3.414,0.054c46.857,1.479,77.135,36.854,77.135,90.121c0,23.813-3.744,40.224-9.217,56.612
		L131.2,144.03v-33.504h-30v33.504l-68.047,63.831c-1.225-28.476-2.296-56.741-3.104-82.174
		C35.623,76.04,66.313,46.438,112.313,46.438z M149.223,379.464c0,34.953-19.558,58.156-49.826,59.111
		c-0.755,0.024-1.51,0.036-2.257,0.036c-30.436,0-49.894-19.074-53.385-52.332c-2.743-26.135-6.004-80.371-8.809-138.966
		l81.254-76.221l56.304,52.815C161.182,255.46,149.223,297.37,149.223,379.464z"/>
	<path d="M484.942,123.547c-3.48-33.161-16.213-60.652-36.82-79.501c-19.746-18.061-45.813-27.607-75.386-27.607
		c-1.44,0-2.908,0.023-4.361,0.069c-30.104,0.951-57.178,13.101-76.23,34.212c-19.599,21.715-29.957,51.417-29.957,85.894
		c0,37.921,8.596,60.984,17.696,85.4c12.16,32.626,25.942,69.604,25.942,157.45c0,25.333,7.66,47.263,22.153,63.418
		c14.222,15.853,34.367,24.972,56.726,25.678c1.072,0.034,2.143,0.051,3.203,0.051c21.9,0,41.246-7.107,55.944-20.552
		c15.285-13.982,24.718-34.262,27.277-58.648c5.187-49.418,11.397-184.971,13.887-263.825l0.032-1.022L484.942,123.547z
		 M369.322,46.492c1.146-0.036,2.28-0.054,3.414-0.054c45.999,0,76.689,29.602,82.263,79.25
		c-0.808,25.433-1.878,53.698-3.104,82.174l-68.047-63.831v-33.504h-30v33.504l-52.445,49.195
		c-5.472-16.388-9.217-32.799-9.217-56.612C292.188,83.346,322.465,47.972,369.322,46.492z M441.294,386.279
		c-3.491,33.259-22.949,52.333-53.385,52.332c-0.747,0-1.502-0.012-2.257-0.036c-30.269-0.955-49.826-24.158-49.826-59.111
		c0-82.094-11.959-124.003-23.281-155.556l56.304-52.815l81.254,76.221C447.298,305.908,444.037,360.144,441.294,386.279z"/>
</g>
</svg>