<?xml version="1.0" encoding="utf-8"?>
<!-- Uploaded to: SVG Repo, www.svgrepo.com, Generator: SVG Repo Mixer Tools -->
<!DOCTYPE svg PUBLIC "-//W3C//DTD SVG 1.1//EN" "http://www.w3.org/Graphics/SVG/1.1/DTD/svg11.dtd">
<svg fill="#000000" width="800px" height="800px" viewBox="0 0 1000 1000" version="1.1" xmlns="http://www.w3.org/2000/svg" xmlns:xlink="http://www.w3.org/1999/xlink"  enable-background="new 0 0 1000 1000" xml:space="preserve">

<g>
<g transform="translate(0.000000,511.000000) scale(0.100000,-0.100000)">
<path d="M570,4135.6c-16.8-27.3-136.6-754.5-182.8-1099.1C187.5,1498.1,59.3-1044.8,111.8-2469.7c29.4-760.8,42-876.4,105.1-926.8c71.4-56.7,447.6-197.6,727.1-266.9c617.9-157.6,1183.2-220.7,1986-222.8c657.8,0,1025.6,31.5,1397.5,121.9c285.8,69.3,294.2,79.9,311,411.9c37.8,672.5,187.1,1317.7,315.2,1340.8c115.6,23.1,224.9-624.2,224.9-1336.6c0-166,8.4-319.4,21-340.5c25.2-46.2,151.3-90.4,420.3-145c416.1-86.2,556.9-96.7,1313.5-96.7c626.3,2.1,790.2,8.4,1103.3,46.2c750.3,94.6,1332.4,229.1,1639.2,380.4c248,121.9,237.5,77.8,210.2,910c-56.7,1832.6-145,3141.9-317.3,4695c-107.2,977.2-229.1,1952.4-250.1,2002.8l-21,46.2H4939.2C2541.2,4150.3,574.2,4144,570,4135.6z M5536,3477.8v-336.3H3150.7H765.4v69.3c0,82,56.7,506.5,73.6,563.2c12.6,39.9,71.5,39.9,2355.9,39.9H5536V3477.8z M9030.9,3666.9c10.5-75.7,29.4-224.9,44.2-330l25.2-195.4h-1614h-1614v336.3V3814l1572-4.2l1569.9-6.3L9030.9,3666.9z M7906.6,2643.5c107.2-939.4,626.3-1618.2,1456.4-1904c46.2-14.7,56.7-86.2,103-802.8c84.1-1311.4,159.7-3053.6,132.4-3080.9c-31.5-31.5-308.9-126.1-550.6-189.2c-334.1-86.2-756.6-155.5-1273.6-208.1c-378.3-39.9-523.3-44.1-1008.8-35.7c-529.6,10.5-714.5,27.3-1134.9,100.9l-130.3,23.1l-12.6,401.4c-25.2,794.4-151.3,1237.9-384.6,1349.2c-115.6,54.6-281.6,35.7-382.5-46.2c-216.5-172.3-365.7-632.6-424.5-1298.8c-37.8-426.6-31.5-405.6-121.9-430.8c-119.8-33.6-531.7-79.9-834.3-94.6c-348.9-16.8-1124.3,21-1536.3,73.6c-622.1,79.9-1275.7,254.3-1311.4,348.8c-37.8,96.7-67.3,1174.8-54.6,1889.3c14.7,786,48.3,1696,65.2,1830.5c12.6,84.1,14.7,86.2,174.4,151.3c435,178.6,775.5,472.9,1021.4,880.6c168.1,281.6,298.4,693.5,321.5,1019.3l12.6,184.9h1721.2h1721.2l-6.3-1527.9c-8.4-1494.2-10.5-1534.2-54.6-1693.9c-79.9-290-203.9-414-414-414c-138.7,0-203.9-44.1-195.4-130.3c8.4-88.3,88.3-142.9,233.3-157.6c185-18.9,298.4,23.1,435,159.7c191.3,193.3,292.1,453.9,336.3,863.8c10.5,111.4,21,807,21,1572v1370.2h1027.7h1025.6L7906.6,2643.5z M1700.6,2632.9c-18.9-210.2-90.4-508.6-163.9-672.5c-107.2-241.7-338.4-521.2-550.6-668.3C885.2,1222.8,574.2,1061,540.5,1061c-21,0-21,0,79.9,1046.6l67.2,697.7h514.9h512.8L1700.6,2632.9z M9138.1,2788.5c27.3-44.1,214.3-1742.2,193.3-1763.2c-14.7-14.7-336.3,161.8-445.5,248c-418.2,321.5-664.1,790.2-695.6,1328.2l-12.6,203.9h475C8913.3,2805.3,9131.8,2796.9,9138.1,2788.5z"/>
</g>
</g>
</svg>