<?xml version="1.0" encoding="iso-8859-1"?>
<!-- Uploaded to: SVG Repo, www.svgrepo.com, Generator: SVG Repo Mixer Tools -->
<svg fill="#000000" height="800px" width="800px" version="1.1" id="Layer_1" xmlns="http://www.w3.org/2000/svg" xmlns:xlink="http://www.w3.org/1999/xlink" 
	 viewBox="0 0 512 512" xml:space="preserve">
<g>
	<g>
		<path d="M511.528,374.291l-6.671-33.348c-0.03-0.146-0.213-0.818-0.224-0.855c-11.124-36.949-54.483-34.879-92.75-33.047
			c-8.17,0.39-15.899,0.75-23.327,0.788c-10.82-3.405-21.174-7.374-31.079-11.814c0.819-3.369-0.624-7.01-3.78-8.832
			c-3.515-2.031-7.922-1.088-10.338,2.035c-7.452-3.839-14.628-7.94-21.538-12.265c2.023-3.416,1.251-7.883-1.961-10.392
			c-3.49-2.726-8.529-2.107-11.253,1.383l-0.128,0.165c-7.077-4.961-13.847-10.144-20.318-15.495
			c1.855-3.082,1.462-7.137-1.196-9.795c-2.935-2.936-7.583-3.118-10.731-0.548c-6.646-6.039-12.951-12.232-18.908-18.514
			c3.294-2.868,3.695-7.857,0.869-11.209c-2.852-3.385-7.91-3.817-11.297-0.963l-0.358,0.301
			c-5.489-6.302-10.644-12.643-15.492-18.954c1.942-2.318,2.491-5.635,1.123-8.553c-1.836-3.917-6.432-5.643-10.38-3.971
			c-5.612-7.895-10.728-15.663-15.372-23.166c3.033-2.192,4.203-6.286,2.59-9.821c-1.839-4.029-6.594-5.803-10.622-3.965
			l-0.134,0.061c-5.317-9.312-9.849-18.014-13.636-25.783c3.555-1.844,5.253-6.092,3.807-9.933
			c-1.561-4.144-6.188-6.237-10.328-4.678l-0.222,0.083c-1.747-3.964-3.222-7.488-4.427-10.477
			c-3.864-9.583-13.016-15.776-23.316-15.776H42.139c-8.969,0-16.401,7.325-16.563,16.329c-0.533,29.386-3.749,67.648-7.153,108.156
			c-4.466,53.141-9.492,113.113-9.837,168.325C3.473,372.586,0,378.029,0,384.272v25.654c0,13.851,11.269,25.12,25.12,25.12h328.01
			c53.397,0,113.772-22.048,139.553-31.463C506.454,398.554,514.026,386.782,511.528,374.291z M395.354,323.752
			c5.729-0.152,11.573-0.422,17.294-0.696c37.303-1.784,63.537-1.617,73.689,15.013c-37.218,14.314-67.886,21.792-90.984,25.655
			V323.752z M487.184,388.522c-24.984,9.125-83.493,30.49-134.053,30.49H25.12c-5.01,0-9.086-4.076-9.086-9.086v-25.654
			c0-0.295,0.239-0.534,0.534-0.534H42.22c4.428,0,8.017-3.589,8.017-8.017s-3.589-8.017-8.017-8.017H24.63
			c0.457-54.003,5.386-112.772,9.769-164.923c3.427-40.778,6.664-79.295,7.207-109.207c0.005-0.335,0.234-0.587,0.532-0.587h67.1
			c1.487,4.109,4.224,11.314,8.338,20.808c1.311,3.024,4.262,4.832,7.361,4.832c1.064,0,2.144-0.213,3.183-0.663
			c4.062-1.76,5.929-6.481,4.169-10.544c-2.512-5.796-4.474-10.664-5.929-14.433h23.767c3.724,0,7.039,2.252,8.445,5.739
			c1.176,2.915,2.602,6.326,4.273,10.136l-7.467,2.811c-4.143,1.56-6.238,6.184-4.678,10.328c1.21,3.213,4.262,5.194,7.504,5.194
			c0.939,0,1.893-0.166,2.824-0.516l8.553-3.22c3.885,8.025,8.552,17.046,14.047,26.731l-7.324,3.343
			c-4.029,1.839-5.803,6.594-3.965,10.622c1.346,2.949,4.255,4.69,7.299,4.69c1.114,0,2.245-0.233,3.323-0.726l8.865-4.046
			c4.614,7.514,9.68,15.295,15.238,23.221l-7.532,3.531c-4.008,1.879-5.735,6.653-3.856,10.663c1.364,2.909,4.251,4.616,7.265,4.616
			c1.139,0,2.297-0.245,3.398-0.76l10.354-4.854c5.47,7.214,11.341,14.479,17.621,21.701l-5.975,5.036
			c-3.385,2.853-3.817,7.911-0.963,11.297c1.585,1.881,3.852,2.851,6.135,2.851c1.825,0,3.658-0.619,5.163-1.887l6.41-5.402
			c6.234,6.607,12.821,13.132,19.786,19.495l-6.403,6.403c-3.131,3.131-3.131,8.207,0,11.337c1.565,1.566,3.617,2.348,5.669,2.348
			c2.051,0,4.104-0.782,5.669-2.348l7.178-7.179c6.879,5.735,14.078,11.295,21.621,16.615l-4.935,6.318
			c-2.726,3.49-2.106,8.528,1.383,11.253c1.466,1.145,3.204,1.7,4.929,1.7c2.384,0,4.744-1.058,6.324-3.083l5.668-7.256
			c7.459,4.724,15.216,9.209,23.289,13.397l-4.65,8.053c-2.214,3.834-0.9,8.737,2.934,10.951c1.262,0.729,2.641,1.075,4.001,1.075
			c2.771,0,5.466-1.439,6.95-4.01l5.226-9.052c9.47,4.296,19.325,8.197,29.6,11.604v28.939
			c-106.002-35.9-173.339-114.976-211.467-175.876c-2.349-3.752-7.295-4.889-11.05-2.541c-3.753,2.35-4.89,7.297-2.541,11.05
			c39.729,63.456,110.169,145.981,221.599,183.117c-10.024,1.047-17.667,1.307-22.731,1.307H76.429
			c-4.428,0-8.017,3.589-8.017,8.017s3.589,8.017,8.017,8.017H353.13c50.899,0,108.971-19.31,137.874-30.292l4.799,23.991
			C497.212,384.476,488.87,387.906,487.184,388.522z"/>
	</g>
</g>
<g>
	<g>
		<path d="M151.873,147.438c-2.652-4.868-5.254-9.83-7.733-14.749c-1.991-3.954-6.813-5.543-10.767-3.552
			c-3.954,1.992-5.545,6.813-3.552,10.767c2.556,5.072,5.238,10.187,7.971,15.206c1.455,2.67,4.206,4.183,7.048,4.183
			c1.296,0,2.61-0.314,3.829-0.979C152.556,156.194,153.99,151.325,151.873,147.438z"/>
	</g>
</g>
<g>
	<g>
		<path d="M110.635,196.673c-32.713,0-59.326,26.613-59.326,59.326s26.613,59.326,59.326,59.326s59.326-26.613,59.326-59.326
			S143.348,196.673,110.635,196.673z M110.635,299.291c-23.872,0-43.292-19.422-43.292-43.292s19.42-43.292,43.292-43.292
			c23.872,0,43.292,19.42,43.292,43.292S134.507,299.291,110.635,299.291z"/>
	</g>
</g>
</svg>