<?xml version="1.0" encoding="iso-8859-1"?>
<!-- Uploaded to: SVG Repo, www.svgrepo.com, Generator: SVG Repo Mixer Tools -->
<svg fill="#000000" height="800px" width="800px" version="1.1" id="Layer_1" xmlns="http://www.w3.org/2000/svg" xmlns:xlink="http://www.w3.org/1999/xlink" 
	 viewBox="0 0 512 512" xml:space="preserve">
<g>
	<g>
		<path d="M511.051,215.654C480.339,105.779,381.788,28.066,268.798,22.545V0h-25.6v22.545
			C130.208,28.066,31.657,105.779,0.945,215.654c-2.773,9.933,0.683,20.565,8.764,26.965c4.625,3.652,10.24,5.521,15.889,5.521
			c4.241,0,8.499-1.05,12.365-3.183c14.575-8.047,29.747-12.126,45.099-12.126c22.639,0,44.732,8.567,62.217,24.115
			c4.83,4.292,10.914,6.468,17.015,6.468c5.265,0,10.547-1.621,15.053-4.898c19.584-14.242,42.172-22.409,65.843-24.687V448
			c0,21.171-17.229,38.4-38.4,38.4s-38.4-17.229-38.4-38.4c0-7.074-5.726-12.8-12.8-12.8c-7.074,0-12.8,5.726-12.8,12.8
			c0,35.285,28.715,64,64,64s64-28.715,64-64V233.839c23.663,2.278,46.259,10.445,65.843,24.687
			c4.506,3.277,9.788,4.898,15.053,4.898c6.11,0,12.194-2.176,17.015-6.468c17.485-15.556,39.578-24.115,62.217-24.115
			c15.351,0,30.524,4.079,45.099,12.126c3.866,2.133,8.124,3.183,12.365,3.183c5.649,0,11.273-1.869,15.889-5.53
			C510.377,236.22,513.833,225.587,511.051,215.654z M155.33,232.61c-20.13-15.539-44.868-25.37-72.26-25.37
			c-20.949,0-40.337,5.854-57.472,15.309c24.602-88.004,98.039-155.58,189.338-171.392
			C185.512,87.475,161.466,157.995,155.33,232.61z M255.998,207.232c-26.94,0-52.181,6.861-74.411,18.679
			C191.588,126.345,233.538,51.2,255.998,51.2c22.46,0,64.418,75.145,74.411,174.711
			C308.179,214.093,282.938,207.232,255.998,207.232z M428.926,207.241c-27.401,0-52.13,9.83-72.252,25.378
			c-6.135-74.615-30.191-145.135-59.605-181.453c91.29,15.804,164.736,83.379,189.329,171.375
			C469.271,213.094,449.875,207.241,428.926,207.241z"/>
	</g>
</g>
</svg>