<?xml version="1.0" encoding="iso-8859-1"?>
<!-- Uploaded to: SVG Repo, www.svgrepo.com, Generator: SVG Repo Mixer Tools -->
<!DOCTYPE svg PUBLIC "-//W3C//DTD SVG 1.1//EN" "http://www.w3.org/Graphics/SVG/1.1/DTD/svg11.dtd">
<svg fill="#000000" height="800px" width="800px" version="1.1" id="Capa_1" xmlns="http://www.w3.org/2000/svg" xmlns:xlink="http://www.w3.org/1999/xlink" 
	 viewBox="0 0 480 480" xml:space="preserve">
<path d="M389.918,453.978c-24.924-153.407-4.762-278.556-4.556-279.8l0.869-5.225l-3.833-3.654
	c-16.559-15.786-25.315-26.829-30.294-46.889c-5.117-20.616-6.204-50.897-3.877-108.004L348.651,0h-43.475l-2.347,6.689
	c-6.365,18.143-22.992,48.579-62.83,48.579c-39.837,0-56.465-30.437-62.831-48.579L174.822,0h-43.473l0.424,10.407
	c2.327,57.107,1.24,87.389-3.876,108.004c-4.978,20.06-13.735,31.103-30.294,46.888l-3.833,3.654l0.869,5.225
	c0.207,1.244,20.401,126.192-4.556,279.8l-1.488,9.157l9.019,2.169C100.108,465.905,159.63,480,240,480
	s139.892-14.095,142.387-14.695l9.02-2.169L389.918,453.978z M240,75.269c23.582,0,43.975-8.65,59.369-24.575
	c-1.408,10.227-3.647,20.576-7.226,30.017c-9.768,25.772-26.824,38.3-52.143,38.3c-25.319,0-42.375-12.528-52.143-38.3
	c-3.579-9.441-5.818-19.79-7.225-30.016C196.026,66.619,216.418,75.269,240,75.269z M240,460
	c-60.176,0-109.243-8.363-128.698-12.226c20.472-134.72,7.328-246.515,3.84-271.616c32.095-31.556,40.569-54.731,37.009-156.158
	h6.261c0.358,19.769,2.293,45.506,10.742,67.799c12.698,33.503,37.196,51.211,70.845,51.211c33.649,0,58.146-17.708,70.845-51.211
	c8.45-22.293,10.385-48.032,10.743-67.799h6.26c-3.56,101.425,4.915,124.601,37.009,156.158
	c-3.487,25.101-16.632,136.896,3.84,271.616C349.238,451.638,300.172,460,240,460z"/>
</svg>